<?xml version="1.0" encoding="utf-8" ?><svg xmlns="http://www.w3.org/2000/svg" xmlns:xlink="http://www.w3.org/1999/xlink" width="1024" height="1024" viewBox="0 0 1024 1024"><path fill="#020202" d="M0 0L3.24107 0L10.1389 0L72.9982 0L83.3558 0L122.965 0L132.599 0L140.594 0L145.454 0L210.201 0L266.109 0L280.845 0L303.211 0L430.685 0L432.778 0L437.14 0L444.207 0L532.911 0L565.526 0L582.651 0L591.654 0L665.472 0L674.375 0L679.519 0L690.699 0L695.645 0L699.994 0L701.807 0L709.935 0L794.818 0L806.846 0L843.067 0L884.06 0L889.703 0L927.933 0L931.817 0L968.663 0L969.239 0L980.439 0L986.243 0L1024 0L1024 0.329989L1024 10.8322L1024 13.0951L1024 22.5274L1024 109.064L1024 111.548L1024 147.46L1024 151.543L1024 164.869L1024 196.583L1024 275.386L1024 327.544L1024 675.988L1024 699.738L1024 786.179L1024 797.041L1024 809.913L1024 812.771L1024 830.314L1024 833.387L1024 873.882L1024 880.889L1024 882.957L1024 971.918L1024 979.929L1024 1024L873.327 1024L867.606 1024L859.753 1024L771.449 1024L765.357 1024L603.109 1024L576.932 1024L238.837 1024L204.896 1024L92.175 1024L82.316 1024L0 1024L0 1019.3L0 1013.52L0 985.345L0 960.199L0 931.865L0 930.059L0 917.055L0 914.059L0 882.908L0 878.362L0 868.302L0 856.725L0 832.06L0 829.462L0 756.282L0 753.902L0 736.978L0 458.957L0 434.298L0 297.508L0 282.766L0 197.563L0 178.315L0 168.074L0 165.01L0 131.782L0 124.283L0 112.974L0 98.6106L0 93.0744L0 42.64L0 10.5936L0 6.41946L0 0Z"/><path fill="#020202" d="M927.933 0L931.817 0L968.663 0L969.239 0L980.439 0L986.243 0L1024 0L1024 0.329989L1024 10.8322L1024 13.0951L1024 22.5274L1024 109.064L1024 111.548L1024 147.46L1024 151.543C1018.21 141.903 1013.07 138.741 1003.98 132.701C1002.64 132.737 1001.45 131.383 1000.5 130.501L1000.28 130.957L999.209 131.044C996.324 126.29 993.19 109.731 990.289 103.122C986.348 94.1439 982.012 85.6845 977.938 76.8572L950.281 16.7957L951.005 16.4744L950.783 15.8006C949.868 12.9478 949.265 11.695 950.594 9.12677C949.549 8.42533 949.365 8.58423 947.969 8.37316C938.622 5.50422 936.328 5.14807 927.933 0Z"/><defs><linearGradient id="gradient_0" gradientUnits="userSpaceOnUse" x1="1027.7095" y1="23.982452" x2="985.61499" y2="80.307808"><stop offset="0" stop-color="#1D1D1D"/><stop offset="1" stop-color="#515151"/></linearGradient></defs><path fill="url(#gradient_0)" d="M968.199 27.086C976.593 32.2039 985.74 27.3244 993.238 22.243C996.664 19.9214 1003.61 6.89567 1009.82 10.4052C1010.65 12.3994 1010.25 13.1934 1009.51 15.1382C1007.58 20.216 1012.02 54.3484 1013.27 61.4974C1014.64 69.3919 1016.38 77.3715 1018.14 85.1918C1019.42 90.8649 1021.79 96.2638 1022.53 102.055L1022.63 101.772L1022.05 101.689C1016.45 82.2011 1011.86 60.0193 1002.39 42.0561C1000.72 38.8907 997.903 37.0729 995.056 35.0163L994.603 35.3542C995.955 39.5224 993.678 40.5868 995.65 47.0515C999.241 56.7312 1006.41 69.2618 1007.69 78.031C1013.07 88.5789 1017.3 99.2837 1024 109.064L1024 111.548L1023.02 110.667L1023.14 110.385C1022.16 107.84 1013.84 96.2538 1011.72 93.081C996.819 70.765 985.355 48.7552 967.796 28.1425L968.199 27.086Z"/><path fill="#141314" d="M1007.69 78.031C1005.45 74.8802 998.272 61.0388 996.724 57.5531C997.583 58.5858 998.368 59.7102 999.159 60.7979L999.407 60.5028C996.792 54.2434 994.201 46.5894 990.996 40.4817C990.787 40.0842 989.612 34.4735 989.362 33.5017L989.778 33.2949C991.344 36.4283 991.228 36.7532 992.144 39.9804C992.558 41.4404 994.786 45.4752 995.65 47.0515C999.241 56.7312 1006.41 69.2618 1007.69 78.031Z"/><defs><linearGradient id="gradient_1" gradientUnits="userSpaceOnUse" x1="995.00134" y1="72.060974" x2="955.32654" y2="75.36998"><stop offset="0" stop-color="#353031"/><stop offset="1" stop-color="#414748"/></linearGradient></defs><path fill="url(#gradient_1)" d="M951.005 16.4744C955.194 25.0148 959.428 33.7393 963.996 42.0669C968.539 50.3497 973.477 58.0794 977.662 66.5896C981.965 75.4993 986.081 84.4978 990.008 93.5795C992.586 99.675 995.209 106.638 998.013 112.513L997.043 113.491L996.586 112.907C996.702 118.15 1001.96 125.077 1000.5 130.501L1000.28 130.957L999.209 131.044C996.324 126.29 993.19 109.731 990.289 103.122C986.348 94.1439 982.012 85.6845 977.938 76.8572L950.281 16.7957L951.005 16.4744Z"/><defs><linearGradient id="gradient_2" gradientUnits="userSpaceOnUse" x1="1014.7214" y1="128.257" x2="1005.0333" y2="132.34653"><stop offset="0" stop-color="#333332"/><stop offset="1" stop-color="#505051"/></linearGradient></defs><path fill="url(#gradient_2)" d="M1000.5 130.501C1001.96 125.077 996.702 118.15 996.586 112.907L997.043 113.491L998.013 112.513C1004.63 124.276 1015.59 136.272 1024 147.46L1024 151.543C1018.21 141.903 1013.07 138.741 1003.98 132.701C1002.64 132.737 1001.45 131.383 1000.5 130.501Z"/><path fill="#141314" d="M1000.5 130.501C1001.96 125.077 996.702 118.15 996.586 112.907L997.043 113.491C1002.04 121.336 1000.12 125.957 1007.83 133.145L1009.01 134.26L1008.5 134.553C1007.29 133.66 1006.04 132.427 1004.65 132.407L1003.98 132.701C1002.64 132.737 1001.45 131.383 1000.5 130.501Z"/><path fill="#141314" d="M931.817 0L968.663 0C964.769 3.20816 961.166 4.67953 956.27 5.75262L954.981 5.37951C949.767 8.69272 936.602 4.53307 931.997 1.4606L931.933 0.650639L931.817 0Z"/><path fill="#4F4F50" d="M931.817 0L968.663 0C964.769 3.20816 961.166 4.67953 956.27 5.75262L954.981 5.37951L958.977 0.444501C954.483 1.52604 950.858 2.94799 946.201 2.05018C941.407 1.12608 936.756 1.07003 931.933 0.650639L931.817 0Z"/><path fill="#434343" d="M927.933 0L931.817 0L931.933 0.650639L931.997 1.4606C936.602 4.53307 949.767 8.69272 954.981 5.37951L956.27 5.75262C961.166 4.67953 964.769 3.20816 968.663 0L969.239 0C970.078 2.36299 970.949 4.71441 971.851 7.0536L971.052 7.39431C967.066 5.77704 967.473 4.01239 962.415 5.4248C958.421 6.53988 954.515 7.74717 950.594 9.12677C949.549 8.42533 949.365 8.58423 947.969 8.37316C938.622 5.50422 936.328 5.14807 927.933 0Z"/><path fill="#4F4F50" d="M1013.35 4.52121C1016.81 3.36191 1020.58 1.72584 1024 0.329989L1024 10.8322C1020.18 7.01709 1018.26 6.41427 1013.35 4.52121Z"/><path fill="#434343" d="M980.439 0L986.243 0C980.4 5.53115 978.302 10.6417 972.101 15.8447C974.413 9.81361 978.35 6.29962 980.439 0Z"/><path fill="#333334" d="M1024 22.5274C1021.4 18.5534 1017.1 16.5199 1015.82 14.2275L1016.3 13.4897C1018.77 12.6313 1021.33 12.9863 1024 13.0951L1024 22.5274Z"/><path fill="#212121" d="M1010.57 113.032C1008.88 112.292 1006.48 109.848 1006.7 107.879L1007.7 107.192C1011.99 106.855 1013.21 108.257 1016.84 110.698C1014.93 110.587 1012.92 110.206 1011.34 111.144C1010.77 112.185 1010.78 111.921 1010.57 113.032Z"/><path fill="#333334" d="M1023.14 110.385L1023.02 110.667C1020.43 111.425 1013.19 112.951 1010.57 113.032C1010.78 111.921 1010.77 112.185 1011.34 111.144C1012.92 110.206 1014.93 110.587 1016.84 110.698C1019.31 110.77 1020.7 110.626 1023.14 110.385Z"/><path fill="#212121" d="M967.796 28.1425C965.721 26.4035 962.678 23.3318 961.193 21.114C964.037 23.2443 965.602 24.6393 968.199 27.086L967.796 28.1425Z"/><path fill="#020202" d="M0 856.725C5.15382 870.191 8.14283 883.446 12.976 896.561C23.7833 925.887 38.5672 959.209 57.0073 984.366C55.0073 984.846 54.4031 984.591 53.4445 985.859C54.8691 988.668 57.2444 992.498 58.1075 995.158C57.6364 996.584 57.9136 995.924 56.4107 997.083C42.345 992.611 9.2186 944.226 0 930.059L0 917.055L0 914.059L0 882.908L0 878.362L0 868.302L0 856.725Z"/><path fill="#333334" d="M0 856.725C5.15382 870.191 8.14283 883.446 12.976 896.561C23.7833 925.887 38.5672 959.209 57.0073 984.366C55.0073 984.846 54.4031 984.591 53.4445 985.859C51.6701 981.885 46.8068 974.099 44.7132 969.99C42.6945 966.028 32.6347 943.704 30.5719 942.661C29.7032 945.264 38.3755 957.554 38.9674 961.175C36.1757 959.768 14.4169 914.032 12.5235 907.279C9.22994 895.531 4.23429 880.317 0 868.302L0 856.725Z"/><path fill="#020202" d="M2.3679 869.782C4.1043 872.368 10.4751 892.723 12.1898 897.375C12.7853 899.382 12.9325 898.58 12.5069 900.27C10.5405 898.2 2.81378 873.931 2.3679 869.782Z"/><path fill="#4F4F50" d="M0 878.362C3.07594 886.816 8.07834 896.254 10.4457 904.286C4.82722 898.265 2.59648 890.654 0 882.908L0 878.362Z"/><path fill="#141314" d="M8.57151 911.507L8.59728 912.219C8.7082 914.863 8.75795 915.557 9.44039 918.078L9.14282 919.033C7.58052 918.683 7.08097 918.393 5.66929 917.726L6.31168 916.734C5.85631 915.39 4.29808 914.615 3.03439 913.733L8.57151 911.507Z"/><path fill="#212121" d="M0 914.059L3.03439 913.733C4.29808 914.615 5.85631 915.39 6.31168 916.734L5.66929 917.726L0 917.055L0 914.059Z"/><defs><linearGradient id="gradient_3" gradientUnits="userSpaceOnUse" x1="860.57227" y1="-1.4428385" x2="843.79468" y2="32.1768"><stop offset="0" stop-color="black"/><stop offset="1" stop-color="#3A3A3A"/></linearGradient></defs><path fill="url(#gradient_3)" d="M806.846 0L843.067 0L884.06 0L889.703 0C889.417 0.754631 888.026 4.38647 887.756 4.73459C884.584 8.8142 882.023 7.426 879.831 12.646C881.061 11.5535 881.743 10.8856 882.872 9.68765C882.884 13.8184 881.299 12.6487 882.379 17.5436C883.063 20.6417 883.321 26.3641 883.72 29.7576C884.596 36.8341 886.03 43.8301 888.011 50.6799C884.317 46.084 880.11 47.7186 874.703 48.3184C874.101 47.33 867.608 42.0656 866.341 40.9118C858.02 33.3334 847.171 28.5656 838.842 21.1576C832.453 15.4741 825.814 12.2425 818.7 7.64844C815.327 6.0162 810.034 2.23583 806.846 0Z"/><path fill="#333334" d="M806.846 0L843.067 0L884.06 0C879.862 2.84593 873.067 5.56285 870.14 7.88555C869.262 12.5084 868.348 14.3809 868.46 19.1298C864.614 18.6042 859.652 15.7804 855.913 14.8619C848.109 12.9447 842.502 11.4972 836.24 6.24902C834.754 5.36945 827.258 7.3716 826.508 6.76472C823.967 4.70909 813.715 -1.0105 810.55 1.89814C812.695 2.83979 816.935 5.69134 819.023 7.06789L818.7 7.64844C815.327 6.0162 810.034 2.23583 806.846 0Z"/><path fill="#141314" d="M843.067 0L884.06 0C879.862 2.84593 873.067 5.56285 870.14 7.88555C869.584 8.21572 867.209 9.64473 866.671 9.54482C858.347 7.99945 850.47 3.50699 841.964 2.45757C839.792 2.18961 837.825 2.20577 835.588 1.85413C836.13 1.26032 841.851 0.255941 843.067 0Z"/><defs><linearGradient id="gradient_4" gradientUnits="userSpaceOnUse" x1="889.4801" y1="8.4721403" x2="867.94775" y2="13.04318"><stop offset="0" stop-color="#383839"/><stop offset="1" stop-color="#505050"/></linearGradient></defs><path fill="url(#gradient_4)" d="M884.06 0L889.703 0C889.417 0.754631 888.026 4.38647 887.756 4.73459C884.584 8.8142 882.023 7.426 879.831 12.646C878.008 15.8577 877.089 18.2788 875.713 21.7266C873.594 20.9323 870.563 19.6815 868.46 19.1298C868.348 14.3809 869.262 12.5084 870.14 7.88555C873.067 5.56285 879.862 2.84593 884.06 0Z"/><path fill="#020202" d="M0 98.6106C5.76202 89.7406 9.52178 78.7347 16.8466 70.2433C22.3604 63.8515 33.7376 39.2213 44.3151 43.9365C44.6728 52.6767 24.7242 88.3799 20.3412 98.3467C17.8595 103.99 8.16008 126.486 4.82743 130.323L8.10982 133.104L9.03132 132.419C14.6383 137.947 19.3399 140.392 26.2894 143.417C23.0756 151.759 17.5583 153.566 10.5923 158.685C6.78462 161.488 3.23932 164.63 0 168.074L0 165.01L0 131.782L0 124.283L0 112.974L0 98.6106Z"/><defs><linearGradient id="gradient_5" gradientUnits="userSpaceOnUse" x1="12.076962" y1="77.308144" x2="24.800373" y2="84.46608"><stop offset="0" stop-color="#2D2C2D"/><stop offset="1" stop-color="#535454"/></linearGradient></defs><path fill="url(#gradient_5)" d="M0 98.6106C5.76202 89.7406 9.52178 78.7347 16.8466 70.2433C22.3604 63.8515 33.7376 39.2213 44.3151 43.9365C42.9932 47.0938 40.7734 54.1961 39.1493 56.795C36.4511 61.1125 23.451 89.7622 20.9043 91.2643C25.8336 80.6692 29.66 72.6842 34.2248 61.7293C31.2858 65.7876 28.771 70.8226 26.4312 75.3087C18.3301 90.8409 9.50993 106.094 2.193 122.011C1.18203 124.21 0.458447 127.11 0.520607 129.503C0.546712 130.67 0.612486 131.213 0 131.782L0 124.283L0 112.974L0 98.6106Z"/><path fill="#020202" d="M39.2825 49.7601C26.6787 68.6373 15.1727 87.9422 6.36368 108.881C4.4401 113.453 1.39635 119.664 0 124.283L0 112.974C7.28524 97.3771 25.4323 57.6953 39.2825 49.7601Z"/><path fill="#4F4F50" d="M8.10982 133.104L9.03132 132.419C14.6383 137.947 19.3399 140.392 26.2894 143.417C23.0756 151.759 17.5583 153.566 10.5923 158.685C6.78462 161.488 3.23932 164.63 0 168.074L0 165.01C3.74899 161.9 7.43168 158.792 11.2582 155.776C15.8642 152.146 21.6697 148.774 25.7058 144.625C17.0985 140.094 15.2615 140.606 8.10982 133.104Z"/><defs><linearGradient id="gradient_6" gradientUnits="userSpaceOnUse" x1="172.72913" y1="992.24091" x2="163.20193" y2="1009.3576"><stop offset="0" stop-color="#262525"/><stop offset="1" stop-color="#464646"/></linearGradient></defs><path fill="url(#gradient_6)" d="M118.037 965.699C130.137 969.296 131.271 970.225 141.991 976.761C150.232 981.818 158.506 986.821 166.813 991.77C170.32 993.9 173.745 996.482 177.324 998.369C187.197 1003.54 197.219 1008.43 207.377 1013.01C213.066 1015.61 220.578 1018.5 225.751 1021.59C210.126 1025 205.984 1018.38 195.062 1018.31C195.42 1018.77 207.662 1021.72 209.413 1022.18C202.263 1023.98 191.339 1018.28 189.838 1019.31C185.8 1017.94 181.853 1015.83 178.022 1013.92C174.298 1011.82 154.87 1003.1 151.301 1003.24C148.106 1001.2 141.04 998.356 139.436 997.005C131.316 990.168 124.156 975.153 118.037 965.699Z"/><path fill="#4F4F50" d="M665.472 0L674.375 0L679.519 0L690.699 0L695.645 0L699.994 0L701.807 0L709.935 0L710.613 0.518151C715.191 4.05083 727.808 16.4597 731.203 18.0049C738.239 21.2075 748.205 23.9101 756.291 27.6029L756.886 28.9302C755.726 29.5473 756.334 29.4819 755.109 29.1519L754.536 29.0013C748.462 27.3617 743.933 29.4135 738.248 30.0487C723.972 26.8963 709.875 21.3723 695.157 19.4067C687.938 18.4425 684.232 21.0039 676.744 18.1456C670.369 15.7118 668.943 7.61176 665.819 6.02028L663.723 6.83066L663.226 6.14887L663.267 5.95277C664.832 4.61333 665.943 5.20664 667.136 3.4099C666.977 1.41054 666.895 1.90087 665.472 0Z"/><path fill="#141314" d="M700.898 8.79409C699.79 6.91167 699.87 7.81641 700.066 6.06529C705.946 3.85918 716.323 15.8457 721.907 17.4019C729.189 21.8864 735.642 23.1854 743.75 26.0328C727.219 26.3417 723.719 26.0048 710.535 16.2677C708.102 14.0304 703.665 10.5453 700.898 8.79409Z"/><path fill="#333334" d="M674.375 0L679.519 0L690.699 0C688.653 4.49992 688.036 8.77911 686.27 12.9579L686.498 13.7295L687.216 13.9948C685.245 15.0337 682.8 18.3601 680.631 17.4742C679.535 9.85473 675.519 9.00463 674.689 1.021L674.375 0Z"/><path fill="#212121" d="M674.375 0L679.519 0C680.728 2.14218 680.828 1.56128 680.661 3.608C678.256 5.03669 676.137 2.81129 674.689 1.021L674.375 0Z"/><path fill="#4F4F50" d="M690.699 0L695.645 0L699.994 0C699.694 1.12142 699.039 3.22712 699.02 4.27121L696.988 6.41805L696.806 7.09617C697.179 9.31962 696.772 8.30421 698.25 10.1848C694.741 10.2591 690.395 12.4725 687.216 13.9948L686.498 13.7295L686.27 12.9579C688.036 8.77911 688.653 4.49992 690.699 0Z"/><path fill="#333334" d="M695.645 0L699.994 0C699.694 1.12142 699.039 3.22712 699.02 4.27121L696.988 6.41805C696.574 4.27176 696.127 2.13215 695.645 0Z"/><path fill="#434343" d="M686.27 12.9579C689.968 12.1158 695.131 10.5357 696.806 7.09617C697.179 9.31962 696.772 8.30421 698.25 10.1848C694.741 10.2591 690.395 12.4725 687.216 13.9948L686.498 13.7295L686.27 12.9579Z"/><path fill="#212121" d="M699.994 0L701.807 0C707.711 6.27283 715.648 9.91689 721.907 17.4019C716.323 15.8457 705.946 3.85918 700.066 6.06529C699.87 7.81641 699.79 6.91167 700.898 8.79409C698.831 8.54413 699.467 9.00538 698.181 7.93609C698.357 6.4173 698.598 5.70802 699.02 4.27121C699.039 3.22712 699.694 1.12142 699.994 0Z"/><path fill="#333334" d="M699.02 4.27121C698.598 5.70802 698.357 6.4173 698.181 7.93609C699.467 9.00538 698.831 8.54413 700.898 8.79409C703.665 10.5453 708.102 14.0304 710.535 16.2677C708.147 15.454 700.54 11.4568 698.25 10.1848C696.772 8.30421 697.179 9.31962 696.806 7.09617L696.988 6.41805L699.02 4.27121Z"/><path fill="#434343" d="M72.9982 0L83.3558 0L122.965 0L132.599 0C126.856 3.44646 115.634 9.97752 110.422 13.5979C94.9355 24.3544 69.2874 51.1662 59.9868 67.3255L57.801 63.7134C63.9059 55.2722 71.3701 39.5845 75.3994 29.6357C76.914 26.4974 77.815 23.3758 78.8755 20.062C78.0601 16.4021 79.8997 12.2768 77.0444 8.51498C77.7766 4.30312 77.1633 1.40437 72.9982 0Z"/><defs><linearGradient id="gradient_7" gradientUnits="userSpaceOnUse" x1="77.044601" y1="3.1556895" x2="87.863647" y2="6.131454"><stop offset="0" stop-color="#131213"/><stop offset="1" stop-color="#2F2F2F"/></linearGradient></defs><path fill="url(#gradient_7)" d="M72.9982 0L83.3558 0C85.1639 0.483699 88.3468 0.857803 89.6089 2.04003L89.9137 3.83844C87.2121 7.2444 87.896 7.94983 83.7996 9.94175L85.0009 10.9427C82.2687 10.8967 81.8833 9.397 79.7315 10.0295L79.5364 10.695C80.2953 11.5426 81.5393 12.5305 81.4552 13.3952C81.2656 15.3442 79.774 18.2619 78.8755 20.062C78.0601 16.4021 79.8997 12.2768 77.0444 8.51498C77.7766 4.30312 77.1633 1.40437 72.9982 0Z"/><path fill="#333334" d="M83.3558 0L122.965 0L124.434 1.08752L124.373 1.82494C117.375 6.23074 99.4715 2.88127 91.4594 2.95645C91.3799 2.95719 90.3144 4.16079 90.1842 4.31427L89.9137 3.83844L89.6089 2.04003C88.3468 0.857803 85.1639 0.483699 83.3558 0Z"/><defs><linearGradient id="gradient_8" gradientUnits="userSpaceOnUse" x1="223.49603" y1="-8.5842781" x2="210.04738" y2="48.766941"><stop offset="0" stop-color="#484847"/><stop offset="1" stop-color="#646465"/></linearGradient></defs><path fill="url(#gradient_8)" d="M210.201 0L266.109 0C267.874 1.31856 272.034 3.93816 272.747 5.44868L272.577 6.43059C268.796 6.63179 266.803 7.1562 263.167 8.31926C258.118 6.40616 248.087 11.7366 243.062 13.0795C236.562 14.977 231.61 16.1616 224.889 17.0404C218.506 17.8751 209.321 17.9458 203.382 19.8158C199.429 21.5988 193.065 24.6739 188.888 24.1873C181.634 28.0207 166.522 37.5902 159.459 38.9472C162.609 36.1501 167.236 33.5952 170.38 30.856C178.144 24.0932 185.855 17.7797 194.165 11.6725C199.419 7.81157 205.63 4.63408 210.201 0Z"/><path fill="#333334" d="M188.888 24.1873C191.491 22.632 201.156 17.5358 203.622 17.2527C202.598 18.4427 202.817 17.7779 202.564 19.159L203.382 19.8158C199.429 21.5988 193.065 24.6739 188.888 24.1873Z"/><defs><linearGradient id="gradient_9" gradientUnits="userSpaceOnUse" x1="139.52347" y1="993.19153" x2="152.22733" y2="955.05743"><stop offset="0" stop-color="#444"/><stop offset="1" stop-color="#5F5E5E"/></linearGradient></defs><path fill="url(#gradient_9)" d="M57.2735 922.14C63.7711 926.021 70.362 930.592 76.8523 934.19C85.5817 939.029 94.7497 943.433 103.537 948.239C108.409 950.904 114.618 955.774 119.423 957.895C140.596 970.633 161.567 983.544 183.479 994.921C193.434 1000.09 202.909 1006.41 213.623 1010.1C222.965 1014.77 230.106 1018.08 238.837 1024L204.896 1024C201.052 1022.73 192.842 1020.77 189.838 1019.31C191.339 1018.28 202.263 1023.98 209.413 1022.18C207.662 1021.72 195.42 1018.77 195.062 1018.31C205.984 1018.38 210.126 1025 225.751 1021.59C220.578 1018.5 213.066 1015.61 207.377 1013.01C197.219 1008.43 187.197 1003.54 177.324 998.369C173.745 996.482 170.32 993.9 166.813 991.77C158.506 986.821 150.232 981.818 141.991 976.761C131.271 970.225 130.137 969.296 118.037 965.699C109.968 956.035 106.902 955.286 95.7996 950.273C84.2215 945.045 71.4924 937.754 61.2499 930.222C59.8294 929.177 58.5203 926.585 57.77 924.999L57.2735 922.14Z"/><path fill="#434343" d="M977.775 909.154L978.539 910.923C967.568 928.857 957.611 946.971 946.628 964.943C943.555 969.251 930.558 990.719 928.162 992.583C918.58 1000.04 894.258 1011.76 883.485 1018.67C879.89 1020.31 876.589 1021.73 873.327 1024L867.606 1024C870.032 1021.73 877.509 1018.45 878.349 1016.83C879.783 1015.34 889.116 1009.61 891.899 1007.64C900.493 1002.07 908.083 995.172 916.208 989.062C926.601 981.246 933.178 968.962 942.127 960.512C943.686 959.864 947.936 950.123 951.65 947.281C952.801 947.598 952.99 947.7 954.168 947.732C956.74 943.05 958.464 939.183 961.389 934.411C964.137 929.929 971.243 920.135 972.79 915.92C973.954 913.181 975.67 911.184 977.775 909.154Z"/><defs><linearGradient id="gradient_10" gradientUnits="userSpaceOnUse" x1="4.6831574" y1="68.051758" x2="62.152977" y2="75.853424"><stop offset="0" stop-color="#494849"/><stop offset="1" stop-color="#656664"/></linearGradient></defs><path fill="url(#gradient_10)" d="M0 93.0744C2.05367 89.4766 1.93544 85.3511 3.92055 82.2585C11.4158 70.5818 19.5374 55.0527 29.5678 45.3247C38.7215 36.4469 49.7432 28.1964 58.9367 19.151C61.7758 16.3576 68.4175 7.39794 71.7288 7.29906C56.2674 24.4344 49.4087 40.1745 40.8925 61.2454C32.7031 81.5076 14.5698 106.501 11.5389 128.031C15.7321 133.763 22.1578 136.549 26.938 141.476C26.9558 141.863 26.9736 142.251 26.9914 142.639L26.2894 143.417C19.3399 140.392 14.6383 137.947 9.03132 132.419L8.10982 133.104L4.82743 130.323C8.16008 126.486 17.8595 103.99 20.3412 98.3467C24.7242 88.3799 44.6728 52.6767 44.3151 43.9365C33.7376 39.2213 22.3604 63.8515 16.8466 70.2433C9.52178 78.7347 5.76202 89.7406 0 98.6106L0 93.0744Z"/><path fill="#141314" d="M9.03132 132.419C8.18044 131.126 7.67667 130.643 7.64553 129.098L8.29386 128.617C9.2936 128.941 14.1642 133.946 15.9819 135.505C19.3774 138.416 24.4762 140.598 26.9914 142.639L26.2894 143.417C19.3399 140.392 14.6383 137.947 9.03132 132.419Z"/><path fill="#4F4F50" d="M1024 327.544C1020.8 322.727 1017.88 300.932 1015.81 293.705C1011.71 279.596 1008.43 265.256 1004.64 251.08C1002.43 242.792 998.951 234.995 997.603 226.323C996.239 217.548 992.845 209.28 989.638 201.049C996.001 210.309 998.728 222.881 1003.33 232.727C1009.78 246.519 1016.75 262.156 1024 275.386L1024 327.544Z"/><path fill="#434343" d="M999.209 131.044L1000.28 130.957L1000.5 130.501C1001.45 131.383 1002.64 132.737 1003.98 132.701C1013.07 138.741 1018.21 141.903 1024 151.543L1024 164.869L1024 196.583C1021.82 191.927 1019.44 186.133 1017.69 181.261C1011.69 164.553 1006.07 147.428 999.209 131.044Z"/><path fill="#020202" d="M1000.5 130.501C1001.45 131.383 1002.64 132.737 1003.98 132.701C1013.07 138.741 1018.21 141.903 1024 151.543L1024 164.869C1019.27 156.413 1014.51 149.033 1008.16 141.692C1005.58 138.718 1001.62 134.517 1000.28 130.957L1000.5 130.501Z"/><path fill="#4F4F50" d="M794.818 0L806.846 0C810.034 2.23583 815.327 6.0162 818.7 7.64844C825.814 12.2425 832.453 15.4741 838.842 21.1576C847.171 28.5656 858.02 33.3334 866.341 40.9118C867.608 42.0656 874.101 47.33 874.703 48.3184C880.11 47.7186 884.317 46.084 888.011 50.6799C889.825 55.9745 891.397 59.4959 895.501 63.6116C895.515 63.6368 895.529 63.662 895.543 63.6872L895.316 65.4464C892.235 65.3631 885.147 59.0757 882.049 56.8032C878.351 52.7421 872.526 50.0238 868.24 46.7012C857.404 38.3004 847.688 32.2043 835.341 26.1819C833.145 24.5964 830.939 23.2206 828.587 21.8825C816.849 15.2047 805.804 7.84034 794.818 0Z"/><defs><linearGradient id="gradient_11" gradientUnits="userSpaceOnUse" x1="668.3822" y1="1011.1492" x2="666.68732" y2="1003.8152"><stop offset="0" stop-color="#4C4C4C"/><stop offset="1" stop-color="#6E7070"/></linearGradient></defs><path fill="url(#gradient_11)" d="M747.733 989.248L748.148 990.197C743.108 992.641 731.921 995.501 726.104 997.213C705.55 1003.26 683.656 1009.88 662.335 1012.51C646.64 1014.45 631.342 1016.26 615.758 1019.38C612.144 1020.11 605.46 1020.96 602.35 1022.28L602.272 1022.98L603.109 1024L576.932 1024C587.56 1020.82 598.699 1020.69 609.592 1018.63C648.935 1011.45 688.066 1003.15 726.936 993.734C734.711 991.772 739.937 992.108 747.733 989.248Z"/><path fill="#4F4F50" d="M981.487 1009.48C1004.9 998.973 1008.69 993.208 1024 971.918L1024 979.929C1016.22 992.973 1015.17 1001.72 1009.65 1014.68L1008.96 1014.57C998.007 1012.85 990.873 1015.47 980.009 1009.85L981.487 1009.48Z"/><path fill="#333334" d="M1008.89 996.378C1009.07 996.56 1009.44 997.235 1009.59 997.494C1009.52 999.86 1009.54 1002.07 1007.87 1003.94C1003.39 1008.95 993.344 1010.05 987.148 1010.51L986.595 1009.75C989.057 1007 1000.47 1005.96 1008.89 996.378Z"/><path fill="#333334" d="M132.599 0L140.594 0C134.13 4.86691 130.223 10.2325 124.554 15.843C114.966 25.3326 106.525 36.3475 97.1112 45.9098C92.0615 51.0305 79.7582 65.4018 75.7157 71.3812L75.3678 71.553C75.1698 69.9036 75.8854 69.459 76.875 68.317C76.9117 68.0049 77.1972 65.7436 77.3103 65.5991C79.0971 63.3155 83.604 58.8839 85.2696 56.9778C89.847 51.7394 117.337 23.4501 119.281 19.1076L118.951 18.9491C116.309 21.0583 110.721 27.551 109.211 28.3811L109.252 27.6883C114.495 20.7886 126.379 9.8668 133.525 4.46606C134.612 3.64494 134.66 3.88411 136.093 2.55053L135.92 1.88532C132.883 1.32529 129.204 2.54283 126.773 4.36001C121.512 8.29266 115.451 11.1897 110.019 14.8019C108.982 15.4915 106.941 20.8597 105.245 21.6425C104.675 21.9262 104.837 22.3512 104.764 22.8747C106.058 21.6504 107.201 20.6934 108.575 19.5569C108.529 21.2564 102.669 27.198 101.168 28.6098C96.9691 31.9927 94.0505 36.7497 90.5136 39.886C81.7818 47.6287 73.7494 55.7664 65.4119 63.913C64.2999 64.9996 63.3426 67.7115 62.0282 69.3055L59.9868 67.3255C69.2874 51.1662 94.9355 24.3544 110.422 13.5979C115.634 9.97752 126.856 3.44646 132.599 0Z"/><defs><linearGradient id="gradient_12" gradientUnits="userSpaceOnUse" x1="1012.4158" y1="935.18823" x2="937.17291" y2="945.87592"><stop offset="0" stop-color="#444544"/><stop offset="1" stop-color="#5C5C5D"/></linearGradient></defs><path fill="url(#gradient_12)" d="M997.095 876.917C999.914 879.639 1004.74 882.138 1005.47 883.794L1005.31 885.352C1006.75 884.668 1007.51 883.808 1008.39 882.482L1009.26 882.393C1003.93 891.49 999.977 901.639 995.416 911.208C987.209 928.424 977.72 944.74 968.259 961.277C966.785 963.854 963.413 968.729 966.991 970.802C975.999 970.743 992.387 942.607 998.248 935.031C998.127 939.404 995.675 938.413 998.365 940.739C997.548 941.756 996.852 942.616 995.979 943.593C992.091 946.855 989.547 950.773 986.486 954.782C979.047 964.522 970.522 973.322 962.943 982.932C957.457 989.888 952.351 999.628 946.064 1005.69L945.194 1005.05C950.647 997.019 955.546 988.218 959.256 979.227C961.551 973.664 963.19 967.934 965.91 962.536C972.215 950.023 1003.69 897.741 1003.02 887.589C1002.73 883.299 999.457 880.219 996.399 877.587L997.095 876.917Z"/><path fill="#212121" d="M0 960.199C3.15915 974.334 7.09245 988.327 10.5821 1002.38C11.4982 1006.07 15.347 1014.82 15.1398 1017.32C13.7439 1018.44 13.3432 1018.66 11.7639 1019.56C10.6166 1019.18 11.1517 1019.41 10.2132 1018.28C4.84852 1016.82 4.7397 1018.55 0 1019.3L0 1013.52L0 985.345L0 960.199Z"/><defs><linearGradient id="gradient_13" gradientUnits="userSpaceOnUse" x1="13.601725" y1="1014.4142" x2="-3.8749287" y2="996.84729"><stop offset="0" stop-color="#313132"/><stop offset="1" stop-color="#5C5C5C"/></linearGradient></defs><path fill="url(#gradient_13)" d="M0 985.345C2.56412 990.068 11.7393 1014.4 11.7639 1019.56C10.6166 1019.18 11.1517 1019.41 10.2132 1018.28C4.84852 1016.82 4.7397 1018.55 0 1019.3L0 1013.52L0 985.345Z"/><path fill="#141314" d="M0 1013.52C4.89466 1016.34 6.31841 1011.09 10.2132 1018.28C4.84852 1016.82 4.7397 1018.55 0 1019.3L0 1013.52Z"/><path fill="#020202" d="M1024 812.771L1024 830.314C1015.68 840.148 1005.77 850.263 995.26 857.595C998.339 850.523 1002.07 843.445 1006.11 836.862C1007.52 834.562 1012.5 828.453 1012.94 826.511C1011.35 824.67 1011.18 824.635 1012.53 822.892C1014.12 823.052 1015.19 823.127 1016.78 823.165C1020.35 821.46 1021.66 816.737 1024 812.771Z"/><path fill="#4F4F50" d="M957.215 919.775C955.525 926.338 946.645 936.886 942.11 941.954C942.514 940.23 942.279 940.233 941.312 938.884C939.796 940.247 933.613 947.896 933.037 949.484L934.269 949.341C933.572 951.937 929.932 958.086 927.956 959.566C928.891 957.64 931.978 952.457 931.829 951.059C932.053 950.985 917.023 967.88 915.884 969.118C906.079 979.957 896.084 990.623 885.904 1001.11C884.129 1002.91 871.906 1014.25 871.516 1015.38C873.572 1014.62 878.409 1010.19 880.306 1008.54L880.518 1008.67C877.424 1013.25 864.762 1020.28 864.6 1022.35C870.918 1022.99 874.245 1018.19 878.692 1013.88C885.583 1007.21 903.911 996.702 908.733 989.741C910.29 993.664 878.41 1012.55 875.862 1017.85C877.408 1017.65 876.885 1017.71 878.349 1016.83C877.509 1018.45 870.032 1021.73 867.606 1024L859.753 1024C877.245 1005.56 892.784 991.26 909.869 971.677L911.135 972.691C923.937 962.295 935.063 942.646 947.408 931.164C950.805 928.004 953.238 922.872 957.215 919.775Z"/><defs><linearGradient id="gradient_14" gradientUnits="userSpaceOnUse" x1="969.50092" y1="94.05619" x2="894.8277" y2="72.538506"><stop offset="0" stop-color="#3D3C3C"/><stop offset="1" stop-color="#5F5F5F"/></linearGradient></defs><path fill="url(#gradient_14)" d="M895.316 65.4464L895.543 63.6872C899.459 66.1735 910.38 68.998 914.782 71.3962C924.739 76.822 963.574 96.1566 969.719 102.74C964.964 102.717 936.128 87.6699 929.917 84.9139C925.245 82.4692 897.829 68.3813 895.748 66.4801L895.74 65.9322L895.316 65.4464Z"/><path fill="#333334" d="M1024 880.889L1024 882.957C1022.34 884.066 1017.71 886.296 1016.8 887.533C1012.62 893.18 1009.57 900.304 1006.75 906.734C999.089 924.24 990.908 940.901 979.651 956.429C976.701 960.498 973.155 968.162 967.879 969.258L966.653 968.944C966.108 966.225 977.717 946.818 979.91 944.362L980.64 944.264C980.284 945.398 974.514 954.615 972.937 958.689L973.531 959.234C978.684 957.357 1014.99 886.17 1017.1 884.923C1019.56 885.144 1020.35 882.768 1024 880.889Z"/><path fill="#141314" d="M119.423 957.895C121.484 957.68 122.355 957.652 124.246 958.627C135.921 964.654 146.76 972.135 158.355 978.517L197.356 1000.13C201.319 1002.35 211.794 1006.45 213.623 1010.1C202.909 1006.41 193.434 1000.09 183.479 994.921C161.567 983.544 140.596 970.633 119.423 957.895Z"/><path fill="#4F4F50" d="M1011.71 818.634C1013.84 810.442 1019.15 802.282 1021.01 793.852C1021.75 790.491 1022.3 789.144 1024 786.179L1024 797.041L1024 809.913L1024 812.771C1021.66 816.737 1020.35 821.46 1016.78 823.165C1015.19 823.127 1014.12 823.052 1012.53 822.892C1012.13 821.587 1011.94 820.007 1011.71 818.634Z"/><path fill="#020202" d="M1024 797.041L1024 809.913C1021.56 813.977 1018.99 817.965 1016.31 821.871C1017.15 815.594 1020.81 802.047 1024 797.041Z"/><defs><linearGradient id="gradient_15" gradientUnits="userSpaceOnUse" x1="998.03326" y1="842.13489" x2="1016.2463" y2="849.24286"><stop offset="0" stop-color="#424242"/><stop offset="1" stop-color="#5E5E60"/></linearGradient></defs><path fill="url(#gradient_15)" d="M988.851 865.626C991.302 861.919 994.832 852.79 997.086 848.144L1007.77 826.211C1009.16 823.407 1010.88 821.491 1011.71 818.634C1011.94 820.007 1012.13 821.587 1012.53 822.892C1011.18 824.635 1011.35 824.67 1012.94 826.511C1012.5 828.453 1007.52 834.562 1006.11 836.862C1002.07 843.445 998.339 850.523 995.26 857.595C1005.77 850.263 1015.68 840.148 1024 830.314L1024 833.387C1013.46 845.346 1001.67 856.153 988.851 865.626Z"/><path fill="#434343" d="M0 178.315L2.09751 177.709C9.47972 175.606 15.5718 157.927 23.2287 150.967C20.6339 156.436 18.2128 162.262 15.6502 167.818C12.7062 175.769 8.09214 182.694 3.80366 190.037C2.5573 192.557 1.28937 195.065 0 197.563L0 178.315Z"/><path fill="#333334" d="M3.80366 190.037C4.39215 182.085 10.0925 173.28 15.6502 167.818C12.7062 175.769 8.09214 182.694 3.80366 190.037Z"/><defs><linearGradient id="gradient_16" gradientUnits="userSpaceOnUse" x1="6.0271759" y1="501.61395" x2="2.5230455" y2="440.94092"><stop offset="0" stop-color="#0F0F10"/><stop offset="1" stop-color="#3F3E3E"/></linearGradient></defs><path fill="url(#gradient_16)" d="M0 434.298C2.04485 435.992 2.50925 437.171 2.35553 440.014C1.97121 447.122 10.4782 500.73 8.48788 503.897L7.66667 503.759C4.27704 497.836 4.2682 468.09 0 458.957L0 434.298Z"/><path fill="#4F4F50" d="M532.911 0L565.526 0L582.651 0L591.654 0C588.481 1.52913 574.499 5.79544 571.446 5.37419C563.529 4.28206 538.879 3.4323 532.911 0Z"/><path fill="#212121" d="M565.526 0L582.651 0C579.474 1.99367 578.203 2.83636 574.747 4.20519C570.592 3.12602 569.143 2.15679 565.526 0Z"/><path fill="#4F4F50" d="M97.1112 45.9098L96.9574 47.8117L97.5056 47.9702C98.2838 47.4708 99.0249 46.9257 99.8663 46.5779C94.9192 54.1943 84.6251 65.9796 78.4262 72.9669C71.5972 80.6646 59.9218 94.3607 52.2598 100.923C55.1442 94.5143 64.1443 85.7546 68.7636 80.0163C71.0497 77.1763 73.7607 75.1587 75.3678 71.553L75.7157 71.3812C79.7582 65.4018 92.0615 51.0305 97.1112 45.9098Z"/><path fill="#4F4F50" d="M82.316 1024C75.8067 1016.55 53.5335 1014.85 51.1517 1011.28L51.7481 1010.46C56.2341 1008.67 60.3988 1008.59 65.1834 1008.3L66.219 1009.24L65.9825 1010.2C68.6336 1011.38 72.9109 1013 74.1272 1015.7C76.345 1017.16 80.0874 1017.74 82.6909 1017.52C86.0638 1020.04 88.542 1021.93 92.175 1024L82.316 1024Z"/><defs><linearGradient id="gradient_17" gradientUnits="userSpaceOnUse" x1="66.10817" y1="1008.796" x2="60.89183" y2="1015.704"><stop offset="0" stop-color="#1F1F1C"/><stop offset="1" stop-color="#2F2D34"/></linearGradient></defs><path fill="url(#gradient_17)" d="M74.1272 1015.7C64.801 1012.36 60.5292 1013.1 53.853 1011.01C56.0538 1009.48 63.1407 1010.04 65.9825 1010.2C68.6336 1011.38 72.9109 1013 74.1272 1015.7Z"/><path fill="#212121" d="M59.9868 67.3255L62.0282 69.3055C63.3426 67.7115 64.2999 64.9996 65.4119 63.913C73.7494 55.7664 81.7818 47.6287 90.5136 39.886C94.0505 36.7497 96.9691 31.9927 101.168 28.6098C101.414 35.9647 66.594 60.494 64.1157 67.8217L64.4066 70.3352C63.2169 70.9174 63.3559 70.8381 62.0818 71.1988C58.6749 76.5673 52.8871 87.3281 46.5056 89.8473C48.235 83.801 56.8348 74.0433 58.5422 67.7904C58.25 66.2753 57.9338 66.1497 56.9028 64.9937L57.801 63.7134L59.9868 67.3255Z"/><path fill="#141314" d="M883.485 1018.67C894.258 1011.76 918.58 1000.04 928.162 992.583C930.558 990.719 943.555 969.251 946.628 964.943C946.704 969.078 936.981 987.312 934.496 992.372L934.1 992.347L933.718 991.077L933 990.996C932.416 992.257 932.436 992.399 932.174 993.785C928.543 997.407 926.706 999.109 922.205 1001.6L921.589 1001.42L921.507 1000.22C923.089 998.866 926.093 996.798 926.918 995.249C923.388 996.586 911.101 1003.99 907.092 1006.3C900.53 1010.08 893.172 1014.17 886.651 1018.02L887.778 1017.93C886.079 1018.97 885.45 1019.15 883.485 1018.67Z"/><defs><linearGradient id="gradient_18" gradientUnits="userSpaceOnUse" x1="938.06042" y1="944.71649" x2="933.34973" y2="941.09851"><stop offset="0" stop-color="#414243"/><stop offset="1" stop-color="#646463"/></linearGradient></defs><path fill="url(#gradient_18)" d="M909.869 971.677C927.055 950.914 941.694 933.213 960.596 914.021L961.314 914.031C961.062 916.025 958.786 917.968 957.215 919.775C953.238 922.872 950.805 928.004 947.408 931.164C935.063 942.646 923.937 962.295 911.135 972.691L909.869 971.677Z"/><defs><linearGradient id="gradient_19" gradientUnits="userSpaceOnUse" x1="127.49709" y1="-2.8228061" x2="109.9042" y2="52.131138"><stop offset="0" stop-color="#393C38"/><stop offset="1" stop-color="#726F73"/></linearGradient></defs><path fill="url(#gradient_19)" d="M140.594 0L145.454 0C134.648 6.78113 118.24 26.708 108.683 36.2985C106.976 38.0124 100.971 45.7474 99.8663 46.5779C99.0249 46.9257 98.2838 47.4708 97.5056 47.9702L96.9574 47.8117L97.1112 45.9098C106.525 36.3475 114.966 25.3326 124.554 15.843C130.223 10.2325 134.13 4.86691 140.594 0Z"/><path fill="#141314" d="M1024 675.988L1024 699.738L1022.81 700.145C1022.05 698.884 1022.42 696.025 1022.48 694.4C1021.38 695.378 1019.4 709.837 1016.65 711.773C1014.87 711.724 1015.59 712.046 1014.37 710.872C1013.43 708.355 1013.44 707.727 1014.32 705.249C1017.6 696.042 1019.16 684.61 1024 675.988Z"/><path fill="#212121" d="M942.127 960.512L941.948 960.435C940.766 960.727 930.137 971.392 927.749 973.452L926.842 973.212C927.256 971.724 930.736 969.35 932.253 967.882C935.222 964.991 938.036 961.945 940.681 958.755C942.99 955.932 948.285 947.678 950.67 946.305C952.912 946.226 951.987 945.875 953.597 947.241C953.774 946.219 955.269 944.247 955.19 943.177C954.841 938.444 954.204 941.712 952.851 940.027C954.418 937.333 957.348 935.936 959.104 933.573C963.05 928.265 966.844 919.061 972.79 915.92C971.243 920.135 964.137 929.929 961.389 934.411C958.464 939.183 956.74 943.05 954.168 947.732C952.99 947.7 952.801 947.598 951.65 947.281C947.936 950.123 943.686 959.864 942.127 960.512Z"/><path fill="#333334" d="M19.6909 239.49C18.8524 243.373 14.5029 253.588 12.8522 257.666C10.4943 263.551 8.33174 269.512 6.368 275.54C5.10413 279.335 1.11312 295.862 0 297.508L0 282.766C7.57118 269.893 9.96648 251.451 19.6909 239.49Z"/><path fill="#4F4F50" d="M0 930.059C9.2186 944.226 42.345 992.611 56.4107 997.083C55.3141 997.184 54.4913 997.119 53.5745 997.594C51.3843 995.176 47.355 992.44 44.5523 990.764C43.4933 990.461 43.4906 990.453 42.5434 989.886C42.2923 989.089 28.7176 972.759 27.141 970.755C16.9393 957.785 8.48045 946.031 0 931.865L0 930.059Z"/><path fill="#333334" d="M756.291 27.6029C760.205 29.5256 764.506 31.6688 768.574 33.2432C767.419 35.852 765.713 35.6048 762.961 36.1101L761.579 37.4529C758.854 35.9085 742.613 31.2333 738.248 30.0487C743.933 29.4135 748.462 27.3617 754.536 29.0013L755.109 29.1519C756.334 29.4819 755.726 29.5473 756.886 28.9302L756.291 27.6029Z"/><defs><linearGradient id="gradient_20" gradientUnits="userSpaceOnUse" x1="41.568253" y1="84.188232" x2="49.946381" y2="87.51619"><stop offset="0" stop-color="#262827"/><stop offset="1" stop-color="#4C4B4C"/></linearGradient></defs><path fill="url(#gradient_20)" d="M56.9028 64.9937C57.9338 66.1497 58.25 66.2753 58.5422 67.7904C56.8348 74.0433 48.235 83.801 46.5056 89.8473C40.877 96.3657 38.9164 101.495 32.0896 107.262C34.9283 101.693 39.2017 96.1646 42.1704 90.7472C47.0391 81.8624 51.6188 73.6541 56.9028 64.9937Z"/><path fill="#4F4F50" d="M430.685 0L432.778 0L437.14 0L444.207 0C435.243 3.46355 423.308 12.2936 414.761 12.6869L416.161 11.1948L415.738 9.54033C418.819 7.17194 426.89 2.43272 430.685 0Z"/><path fill="#020202" d="M432.778 0L437.14 0C431.334 3.98784 424.276 8.20458 417.484 10.1074C422.672 7.10685 427.82 3.40805 432.778 0Z"/><defs><linearGradient id="gradient_21" gradientUnits="userSpaceOnUse" x1="51.563976" y1="991.35907" x2="68.212013" y2="997.27167"><stop offset="0" stop-color="#272727"/><stop offset="1" stop-color="#515051"/></linearGradient></defs><path fill="url(#gradient_21)" d="M57.0073 984.366C63.2848 992.706 63.9909 998.151 68.6838 1005.57L68.2078 1005.45C65.5761 1004.81 61.4993 1004.69 59.681 1003.83C60.4614 1003.15 60.9928 1002.79 61.8497 1002.2C62.611 999.634 62.3466 998.043 61.5891 995.445L61.0152 995.385C59.6674 997.983 59.2792 999.971 58.5439 1002.78C57.0582 1001.26 54.8744 999.174 53.5745 997.594C54.4913 997.119 55.3141 997.184 56.4107 997.083C57.9136 995.924 57.6364 996.584 58.1075 995.158C57.2444 992.498 54.8691 988.668 53.4445 985.859C54.4031 984.591 55.0073 984.846 57.0073 984.366Z"/><path fill="#4F4F50" d="M834.412 987.748C837.183 986.681 837.981 986.356 840.98 985.864C824.809 994.809 809.732 1004.61 792.743 1012.05C787.534 1014.33 784.152 1015.32 779.121 1017.19L779.922 1015.75C786.813 1014.16 827.763 991.821 834.412 987.748Z"/><path fill="#212121" d="M835.341 26.1819C847.688 32.2043 857.404 38.3004 868.24 46.7012C872.526 50.0238 878.351 52.7421 882.049 56.8032C878.982 56.9907 838.419 29.9167 835.341 26.1819Z"/><path fill="#4F4F50" d="M0 10.5936L1.00613 10.5331C3.40408 10.3984 3.57141 10.3819 5.66406 9.10304C5.68333 17.7908 3.94356 23.0709 2.20803 31.5565C1.53417 34.8512 0.986121 39.6368 0 42.64L0 10.5936Z"/><path fill="#141314" d="M48.5745 925.153C46.0622 922.924 42.4453 914.909 43.2563 911.803C44.6594 913.39 45.2498 915.406 46.0482 917.413C49.4807 918.358 54.6248 919.815 57.2735 922.14L57.77 924.999C56.7684 926.289 55.975 926.973 55.9146 928.572C53.8524 926.743 51.3016 925.555 48.5745 925.153Z"/><path fill="#4F4F50" d="M1014.65 903.417C1012.67 913.683 1006.64 924.622 1002.28 934.466C1001.37 935.994 999.4 939.519 998.365 940.739C995.675 938.413 998.127 939.404 998.248 935.031C998.784 933.385 1004.37 923.814 1005.56 921.646C1008.95 915.48 1011.67 909.805 1014.65 903.417Z"/><defs><linearGradient id="gradient_22" gradientUnits="userSpaceOnUse" x1="3.7956047" y1="788.24811" x2="11.492181" y2="763.18671"><stop offset="0" stop-color="#191B18"/><stop offset="1" stop-color="#38373A"/></linearGradient></defs><path fill="url(#gradient_22)" d="M6.29493 761.471C7.70377 765.624 11.8885 786.671 10.7928 790.808L10.0153 791.144C7.94928 788.48 5.77954 767.815 3.01864 762.981L4.80246 762.931L5.51805 762.012L6.29493 761.471Z"/><path fill="#4F4F50" d="M0 736.978C2.90151 742.988 4.25824 754.265 6.29493 761.471L5.51805 762.012L4.80246 762.931L3.01864 762.981C2.09758 760.529 1.47067 758.452 0 756.282L0 753.902L0 736.978Z"/><path fill="#141314" d="M0 753.902C1.28917 755.63 5.01181 760.296 5.51805 762.012L4.80246 762.931L3.01864 762.981C2.09758 760.529 1.47067 758.452 0 756.282L0 753.902Z"/><path fill="#141314" d="M929.917 84.9139C936.128 87.6699 964.964 102.717 969.719 102.74L970.208 103.276L969.247 103.607C960.891 100.95 934.037 92.6119 929.917 84.9139Z"/><path fill="#333334" d="M266.109 0L280.845 0C282.461 1.92293 282.817 2.36363 284.85 3.80366C281.87 4.70611 275.676 6.64202 272.577 6.43059L272.747 5.44868C272.034 3.93816 267.874 1.31856 266.109 0Z"/><path fill="#141314" d="M0 0L3.24107 0L10.1389 0C8.5399 1.76796 7.57898 1.7464 5.271 2.34769C4.92661 2.94186 5.91296 6.75189 5.66406 9.10304C3.57141 10.3819 3.40408 10.3984 1.00613 10.5331L0 10.5936L0 6.41946L0 0Z"/><path fill="#4F4F50" d="M0 0L3.24107 0C3.6537 1.84076 4.2782 3.30814 3.53257 4.9307C2.08358 5.96912 1.68268 5.98291 0 6.41946L0 0Z"/><defs><linearGradient id="gradient_23" gradientUnits="userSpaceOnUse" x1="72.408928" y1="1014.4882" x2="74.502106" y2="1010.1624"><stop offset="0" stop-color="#3A3A3B"/><stop offset="1" stop-color="#565655"/></linearGradient></defs><path fill="url(#gradient_23)" d="M65.1834 1008.3C66.6386 1007.74 67.5736 1007.41 68.9571 1006.64C69.9883 1006.92 69.5678 1006.65 70.2635 1007.42C73.7386 1011.25 78.4956 1014.45 82.6909 1017.52C80.0874 1017.74 76.345 1017.16 74.1272 1015.7C72.9109 1013 68.6336 1011.38 65.9825 1010.2L66.219 1009.24L65.1834 1008.3Z"/><path fill="#141314" d="M768.574 33.2432C772.413 34.7341 774.658 37.1476 777.574 39.9621C769.875 40.0983 768.847 39.9148 761.579 37.4529L762.961 36.1101C765.713 35.6048 767.419 35.852 768.574 33.2432Z"/><path fill="#4F4F50" d="M1008.39 882.482C1004.7 879.779 1001.1 876.951 997.432 874.199C995.161 872.495 990.716 871.208 989.063 869.638C993.157 868.065 1009.03 879.239 1011.39 882.02C1010.38 882.308 1010.3 882.335 1009.26 882.393L1008.39 882.482Z"/><path fill="#434343" d="M280.845 0L303.211 0C297.185 1.89202 291.089 2.89729 284.85 3.80366C282.817 2.36363 282.461 1.92293 280.845 0Z"/><defs><linearGradient id="gradient_24" gradientUnits="userSpaceOnUse" x1="977.69238" y1="995.06134" x2="989.23907" y2="993.44818"><stop offset="0" stop-color="#000503"/><stop offset="1" stop-color="#353134"/></linearGradient></defs><path fill="url(#gradient_24)" d="M980.009 1009.85L979.331 1009C978.471 1005.11 985.46 985.365 987.207 980.854L988.239 981.149C987.03 984.173 980.619 1006.13 980.845 1008.52L981.487 1009.48L980.009 1009.85Z"/><path fill="#141314" d="M151.301 1003.24C154.87 1003.1 174.298 1011.82 178.022 1013.92C172.622 1013.81 156.206 1007.91 151.301 1003.24Z"/><path fill="#141314" d="M834.412 987.748C835.823 983.433 843.757 979.131 847.985 978.638C846.865 980.115 846.234 980.623 846.161 982.463C844.936 983.936 842.927 985.654 840.98 985.864C837.981 986.356 837.183 986.681 834.412 987.748Z"/><path fill="#434343" d="M393.69 21.6189C399.601 17.1788 408.239 14.8044 415.738 9.54033L416.161 11.1948L414.761 12.6869C406.248 17.6782 403.288 19.1288 393.69 21.6189Z"/><path fill="#141314" d="M1002.28 934.466C1002.32 935.394 998.746 951.615 998.222 953.054L997.323 952.847C996.83 949.386 997.507 946.895 995.979 943.593C996.852 942.616 997.548 941.756 998.365 940.739C999.4 939.519 1001.37 935.994 1002.28 934.466Z"/><path fill="#141314" d="M77.0444 8.51498C79.8997 12.2768 78.0601 16.4021 78.8755 20.062C77.815 23.3758 76.914 26.4974 75.3994 29.6357C74.5332 24.0322 76.9801 15.517 77.0338 9.13195L77.0444 8.51498Z"/><path fill="#212121" d="M243.062 13.0795C248.087 11.7366 258.118 6.40616 263.167 8.31926C258.877 10.7525 247.905 14.7672 243.062 13.0795Z"/><path fill="#434343" d="M997.323 952.847L998.222 953.054C996.907 956.478 995.899 960.962 994.396 964.964C992.63 969.668 989.404 976.668 988.239 981.149L987.207 980.854C990.041 971.381 994.609 962.086 997.323 952.847Z"/><path fill="#333334" d="M0 829.462C7.46319 830.94 10.3667 831.776 16.7437 836.213C11.1725 834.501 5.7684 833.023 0 832.06L0 829.462Z"/><path fill="#4F4F50" d="M1017.1 884.923C1018.52 882.099 1022.07 877.176 1024 873.882L1024 880.889C1020.35 882.768 1019.56 885.144 1017.1 884.923Z"/><path fill="#212121" d="M977.775 909.154C981.666 902.661 980.226 902.01 986.784 897.654C985.576 899.598 979.663 909.558 978.539 910.923L977.775 909.154Z"/><path fill="#333334" d="M44.5523 990.764C40.3648 991.369 38.7701 992.166 34.8279 993.818C33.0856 993.272 33.6584 993.805 32.7251 992.567L33.1039 991.409C35.2348 989.823 39.7043 990.028 42.5434 989.886C43.4906 990.453 43.4933 990.461 44.5523 990.764Z"/><path fill="#212121" d="M765.357 1024C770.981 1021.69 774.256 1018.12 779.922 1015.75L779.121 1017.19C774.944 1019.42 773.997 1020 771.449 1024L765.357 1024Z"/><path fill="#141314" d="M747.733 989.248C750.458 987.949 753.387 986.599 756.433 986.713L757.138 987.295C755.934 989.402 750.396 990.19 748.148 990.197L747.733 989.248Z"/><path fill="#333334" d="M48.5745 925.153C51.3016 925.555 53.8524 926.743 55.9146 928.572C56.4114 929.589 56.2744 929.19 56.361 930.349L55.8101 930.727C52.9023 930.071 50.4802 927.332 48.5745 925.153Z"/><path fill="#4F4F50" d="M996.399 877.587C994.477 876.255 989.146 872.897 987.975 871.411C991.646 871.962 994.261 874.572 997.095 876.917L996.399 877.587Z"/><path fill="#434343" d="M945.194 1005.05L946.064 1005.69C942.819 1010.27 941.97 1011.4 937.206 1014.3C939.833 1011.62 942.985 1008.08 945.194 1005.05Z"/><path fill="#212121" d="M947.969 8.37316C949.365 8.58423 949.549 8.42533 950.594 9.12677C949.265 11.695 949.868 12.9478 950.783 15.8006L951.005 16.4744L950.281 16.7957C949.422 14.7257 948.544 10.6851 947.969 8.37316Z"/><path fill="#434343" d="M847.985 978.638C849.2 977.669 849.387 977.157 850.657 977.052C849.749 979.208 848.027 981.081 846.161 982.463C846.234 980.623 846.865 980.115 847.985 978.638Z"/><path fill="#EF9918" d="M564.133 324.423C623.969 361.552 689.812 386.097 754.913 411.443C790.278 425.212 827.871 452.722 836.525 491.16C842.618 517.152 838.931 545.865 825.643 569.187C822.11 575.378 818.102 581.286 813.655 586.857C788.852 617.619 754.421 632.895 715.953 637.109C730.313 629.748 742.76 621.305 750.11 606.405C755.813 594.843 758.464 583.621 757.988 570.737C757.694 561.214 755.231 551.884 750.786 543.457C737.414 517.525 713.509 509.052 687.791 500.325L660.059 490.645C606.706 471.576 548.817 447.842 546.593 382.09C547.536 358.889 552.082 344.394 564.133 324.423Z"/><path fill="#E3E2E2" d="M546.593 382.09C550.231 383.253 572.17 399.241 577.576 402.811C634.033 440.286 690.279 478.078 746.311 516.185L801.442 552.827C808.396 557.481 819.353 564.272 825.643 569.187C822.11 575.378 818.102 581.286 813.655 586.857C788.852 617.619 754.421 632.895 715.953 637.109C730.313 629.748 742.76 621.305 750.11 606.405C755.813 594.843 758.464 583.621 757.988 570.737C757.694 561.214 755.231 551.884 750.786 543.457C737.414 517.525 713.509 509.052 687.791 500.325L660.059 490.645C606.706 471.576 548.817 447.842 546.593 382.09Z"/><path fill="#EF9918" d="M192.367 401.377C199.948 405.642 207.877 411.609 215.069 416.615C239.458 433.588 265.417 449.434 289.395 466.917C290.439 509.217 309.816 557.024 339.401 587.096C387.284 635.765 459.756 623.706 503.96 576.967C510.637 569.944 515.929 562.469 521.726 554.459C522.015 562.038 521.984 569.366 521.958 576.953C488.344 616.667 446.586 634.753 395.228 639.259C342.084 643.922 289.038 630.866 247.714 596.104C220.716 573.392 205.02 546.886 193.794 513.837C183.63 478.195 182.381 437.194 192.367 401.377Z"/><path fill="#E3E2E2" d="M192.367 401.377C199.948 405.642 207.877 411.609 215.069 416.615C239.458 433.588 265.417 449.434 289.395 466.917C281.578 471.303 271.267 475.994 263.051 479.979L217.082 502.275C210.222 505.607 200.207 510.123 193.794 513.837C183.63 478.195 182.381 437.194 192.367 401.377Z"/><path fill="#EF9918" d="M359.717 266.21C363.64 265.975 366.776 265.979 370.717 266.046C362.896 269.806 355.546 274.476 348.822 279.961C308.18 312.768 293.522 379.028 288.393 428.344C273.568 418.345 258.688 408.427 243.755 398.589C241.544 396.782 236.199 393.551 233.54 391.66C223.842 384.765 212.627 378.199 203.282 370.945C211.064 354.137 221.32 338.59 233.707 324.82C265.806 289.131 312.056 268.745 359.717 266.21Z"/><path fill="#EF9918" d="M390.319 265.928C405.117 266.624 423.005 272.554 437.55 275.942C468.932 283.25 495.68 289.249 522.77 266.766L522.03 420.75C522.049 426.666 522.01 432.583 521.915 438.499C511.688 424.063 499.857 409.528 489.012 395.454L427.948 315.47C415.863 299.667 401.687 282.038 390.319 265.928Z"/><path fill="#E3E2E2" d="M545.44 480.833C571.039 511.631 594.998 544.18 620.448 575.079C636.597 594.685 653.121 622.015 673.369 636.292L663.597 634.557C653.292 632.342 642.964 630.241 632.613 628.256C602.315 622.281 573.121 615.353 545.203 632.785C544.885 615.091 545.392 596.053 545.423 578.184L545.44 480.833Z"/><path fill="#EF9918" d="M710.873 266.856C747.037 270.608 796.932 299.934 826.89 267.292C826.108 311.221 826.823 356.561 826.777 400.66L826.785 416.554C818.163 406.525 809.473 394.666 801.441 384.015C771.79 344.701 740.243 306.351 710.873 266.856Z"/><path fill="#E3E2E2" d="M725.409 686.205L743.497 686.198C753.476 686.208 765.575 685.261 773.206 692.896C780.93 700.623 780.484 714.358 773.547 722.396C770.09 725.769 767.703 727.623 763.078 729.414C760.365 729.867 757.305 730.348 754.654 730.991C752.612 729.301 736.892 729.931 733.513 729.959L733.485 755.953L725.429 756.017L725.469 722.445L725.409 686.205Z"/><path fill="#020202" d="M733.528 693.866C741.147 693.753 749.259 693.335 756.798 694.067C765.922 694.952 771.345 702.367 769.639 711.318C768.667 716.42 765.47 719.058 761.448 721.823C753.368 722.677 741.996 722.285 733.497 722.335L733.528 693.866Z"/><path fill="#EF9918" d="M733.497 722.335C741.996 722.285 753.368 722.677 761.448 721.823C765.477 722.082 769.511 722.273 773.547 722.396C770.09 725.769 767.703 727.623 763.078 729.414C760.365 729.867 757.305 730.348 754.654 730.991C752.612 729.301 736.892 729.931 733.513 729.959L733.485 755.953L725.429 756.017L725.469 722.445C727.792 722.416 731.261 722.477 733.497 722.335Z"/><path fill="#E3E2E2" d="M669.101 266.703C673.408 266.275 677.805 266.364 682.139 266.362C672.123 270.559 663.156 273.316 654.739 280.761C639.041 294.648 634.146 306.652 632.266 326.571C625.328 323.015 618.095 318.843 611.243 315.04C602.921 310.634 594.169 305.391 585.957 300.677C609.559 277.969 637.361 269.794 669.101 266.703Z"/><path fill="#020202" d="M679.574 686.423L688.583 686.435C693.531 698.459 698.535 710.968 703.704 722.866C700.958 723.151 697.933 723.524 695.206 723.71L698.222 731.041L701.55 738.525C689.811 738.545 677.494 738.381 665.802 738.756C663.311 738.665 660.011 738.262 657.463 738.017C659.597 733.005 661.806 728.025 664.09 723.08C666.55 717.176 668.876 711.641 671.598 705.853C674.35 699.415 677.009 692.938 679.574 686.423Z"/><path fill="#EF9918" d="M679.574 686.423L688.583 686.435C693.531 698.459 698.535 710.968 703.704 722.866C700.958 723.151 697.933 723.524 695.206 723.71C691.184 714.88 688.351 704.938 683.933 695.859C682.246 699.65 680.616 703.466 679.042 707.306C675.927 706.464 674.846 706.233 671.598 705.853C674.35 699.415 677.009 692.938 679.574 686.423Z"/><path fill="#EF9918" d="M664.09 723.08C666.711 723.638 669.522 723.386 672.234 723.307C671.109 725.933 669.92 728.623 668.852 731.264C678.586 731.247 688.54 730.998 698.222 731.041L701.55 738.525C689.811 738.545 677.494 738.381 665.802 738.756C663.311 738.665 660.011 738.262 657.463 738.017C659.597 733.005 661.806 728.025 664.09 723.08Z"/><path fill="#E3E2E2" d="M671.598 705.853C674.846 706.233 675.927 706.464 679.042 707.306L672.234 723.307C669.522 723.386 666.711 723.638 664.09 723.08C666.55 717.176 668.876 711.641 671.598 705.853Z"/><path fill="#E3E2E2" d="M587.379 686.245L594.041 686.205C593.995 696.593 593.887 706.98 593.717 717.367L634.164 717.439L634.199 723.56L642.594 723.556L642.534 756.23L634.124 756.16C634.117 750.63 634.493 729.23 633.902 724.445L633.057 724.011C620.074 724.198 606.79 724.077 593.784 724.098C593.391 734.103 593.656 745.856 593.646 756.002L585.519 756.001L585.519 723.53L593.761 723.553L593.742 717.459L585.622 717.462C585.606 713.148 585.2 689.212 586.124 686.648L587.379 686.245Z"/><path fill="#EF9918" d="M414.465 686.204C417.072 686.209 419.821 686.305 422.44 686.357L422.351 699.827C422.65 718.523 422.211 737.413 422.335 756.175L415.015 756.088C406.816 744.839 397.812 734.075 389.744 722.719C393.261 722.693 396.045 722.651 399.543 722.337C404.461 728.752 409.332 735.203 414.154 741.691C414.336 735.458 414.418 729.223 414.4 722.987C414.598 710.885 414.448 698.342 414.465 686.204Z"/><path fill="#E3E2E2" d="M414.465 686.204C417.072 686.209 419.821 686.305 422.44 686.357L422.351 699.827C422.11 707.639 422.346 715.367 422.143 723.093L414.4 722.987C414.598 710.885 414.448 698.342 414.465 686.204Z"/><path fill="#E3E2E2" d="M544.201 685.244C546.585 685.432 546.315 685.019 547.716 686.29C548.378 688.173 548.107 690.488 548.042 692.535C539.191 693.559 529.69 696.629 532.616 707.218C536.921 722.795 569.853 712.768 572.58 733.105C573.662 741.171 571.995 747.33 565.89 752.529C564.396 748.816 564.482 747.085 564.201 743.112C569.702 717.319 524.886 732.05 523.523 707.525C522.774 694.037 530.938 686.28 544.201 685.244Z"/><path fill="#E3E2E2" d="M446.948 717.446C452.203 717.314 457.487 717.442 462.63 717.307C462.798 719.672 462.927 721.697 462.939 724.086L447.03 724.005L446.969 748.694C459.677 748.674 473.824 748.38 486.405 748.837C486.434 751.191 486.322 753.723 486.262 756.09L438.53 756.078L438.538 723.496L446.989 723.53L446.948 717.446Z"/><path fill="#E3E2E2" d="M364.266 686.31C367.058 686.166 370.16 686.256 372.978 686.272C381.382 698.291 390.811 710.435 399.543 722.337C396.045 722.651 393.261 722.693 389.744 722.719C383.819 715.485 378.307 707.84 372.525 700.46L372.496 722.953C369.841 722.768 367.01 722.706 364.336 722.599C364.586 710.678 364.051 698.412 364.266 686.31Z"/><path fill="#EF9918" d="M790.509 686.333L839.12 686.231L839.158 693.496L799.034 693.534L798.985 717.196C807.351 717.139 815.716 717.133 824.082 717.178C816.002 717.609 806.928 717.376 798.731 717.408L798.532 723.362C795.87 723.304 793.106 723.186 790.456 723.314L790.509 686.333Z"/><path fill="#E3E2E2" d="M266.082 686.401C268.792 686.304 271.675 686.302 274.4 686.256L274.384 717.489L285.989 717.421L285.992 724.068L274.484 724.067L274.325 756.2L266.144 756.147L266.049 723.459L274.185 723.479C274.252 721.592 274.511 720.106 273.763 718.409C271.684 716.943 268.833 717.506 266.068 717.613L266.082 686.401Z"/><path fill="#E3E2E2" d="M190.24 723.023L197.998 723.09C202.243 749.061 228.572 758.187 247.797 740.742L253.899 746.485C240.647 759.763 217.083 760.845 202.505 748.844C194.231 742.033 191.091 733.505 190.24 723.023Z"/><path fill="#E3E2E2" d="M438.496 686.035C453.725 686.192 469.407 685.897 484.548 686.335L485.79 686.701C486.512 688.809 486.201 691.174 486.111 693.461L446.909 693.492L446.948 717.446L438.452 717.535L438.496 686.035Z"/><path fill="#EF9918" d="M438.496 686.035C453.725 686.192 469.407 685.897 484.548 686.335C472.018 686.428 459.488 686.417 446.959 686.302L446.909 693.492L446.948 717.446L438.452 717.535L438.496 686.035Z"/><path fill="#E3E2E2" d="M824.082 717.178L835.482 717.129L835.46 724.199C823.23 724.306 811 724.33 798.77 724.27C798.233 734.08 798.618 746.095 798.824 755.985L790.382 755.975L790.456 723.314C793.106 723.186 795.87 723.304 798.532 723.362L798.731 717.408C806.928 717.376 816.002 717.609 824.082 717.178Z"/><path fill="#EF9918" d="M190.24 723.023C190.531 702.172 202.11 688.397 222.823 685.394C222.783 687.417 222.403 691.655 223.358 693.212C207.732 694.992 197.981 707.864 197.998 723.09L190.24 723.023Z"/><path fill="#EF9918" d="M525.14 741.19C535.793 747.872 554.434 755.061 564.201 743.112C564.482 747.085 564.396 748.816 565.89 752.529C553.559 761.412 532.221 756.791 520.943 747.935C522.241 745.738 523.78 743.374 525.14 741.19Z"/><path fill="#EF9918" d="M798.77 724.27L798.842 748.703C811.346 748.721 826.834 748.303 839.086 748.829L839.031 756.078C825.629 756.122 812.226 756.091 798.824 755.985C798.618 746.095 798.233 734.08 798.77 724.27Z"/><path fill="#EF9918" d="M339.482 686.167L347.833 686.189L347.652 722.919C345.261 722.657 341.925 722.746 339.448 722.738L339.482 686.167Z"/><path fill="#E3E2E2" d="M339.448 722.738C341.925 722.746 345.261 722.657 347.652 722.919C347.844 733.789 347.669 745.242 347.667 756.156L339.235 756.148L339.448 722.738Z"/><path fill="#EF9918" d="M364.336 722.599C367.01 722.706 369.841 722.768 372.496 722.953L372.444 755.944L364.315 755.977L364.336 722.599Z"/><path fill="#E3E2E2" d="M315.038 723.669C317.703 723.599 320.356 723.501 323.022 723.55L322.995 755.963L314.91 755.991C314.896 745.604 314.681 734.444 314.882 724.117L315.038 723.669Z"/><path fill="#E3E2E2" d="M314.992 686.329L323.309 686.3L323.223 717.623L315.026 717.524L314.923 717.17L314.992 686.329Z"/><path fill="#EF9918" d="M635.603 686.251L642.469 686.143C642.487 690.27 643.011 715.575 641.86 717.479L634.338 717.478C634.434 711.18 633.957 691.67 634.683 686.816L635.603 686.251Z"/><path fill="#E3E2E2" d="M754.654 730.991C757.305 730.348 760.365 729.867 763.078 729.414C767.329 737.599 775.766 747.573 780.804 755.98L771.477 756.055C766.948 749.534 758.356 737.784 754.654 730.991Z"/><path fill="#E3E2E2" d="M222.823 685.394C235.493 685.291 242.975 686.721 252.892 695.498C251.259 697.585 249.498 699.766 247.92 701.877C239.785 694.511 235.132 692.646 224.042 693.176L223.358 693.212C222.403 691.655 222.783 687.417 222.823 685.394Z"/><path fill="#EF9918" d="M314.923 717.17L315.026 717.524C314.842 719.963 314.636 721.228 315.038 723.669L314.882 724.117C312.033 723.643 290.609 724.034 285.992 724.068L285.989 717.421C295.082 717.07 306.144 717.846 314.923 717.17Z"/><path fill="#4F4F50" d="M362.612 1002.69C365.782 1004.32 366.487 1006.71 369.316 1008.32C376.456 1012.37 385.308 1011.58 393.201 1012.63C393.277 1014.65 393.695 1015.37 392.783 1016.66L388.915 1017.05C385.861 1017.08 382.486 1017.28 379.538 1016.68L378.792 1015.24L378.022 1015.11L377.515 1017.1L376.763 1017.51C373.671 1017.35 368.099 1015.15 364.668 1014.14C364.125 1012.65 363.733 1006.59 362.612 1002.69Z"/><path fill="#333334" d="M4.77539 956.008C6.84098 967.92 11.6279 977.096 15.2263 988.133C16.9443 993.402 17.4219 1007.22 18.4434 1013.81L16.9609 1015.72C14.0123 1002.61 10.9386 989.754 7.4971 976.758C5.8294 970.461 5.01621 963.268 3.7379 956.806L4.77539 956.008Z"/><path fill="#EF9918" d="M544.201 685.244C554.829 684.925 561.779 687.039 570.666 692.798C569.219 694.944 567.704 697.314 566.115 699.335C559.302 695.103 555.966 693.839 548.042 692.535C548.107 690.488 548.378 688.173 547.716 686.29C546.315 685.019 546.585 685.432 544.201 685.244Z"/><path fill="#434343" d="M393.201 1012.63C401.638 1013.18 408.865 1013.88 417.257 1014.76C426.125 1015.69 432.127 1014.97 441.092 1017.18L440.841 1018.35C439.8 1018.76 440.177 1018.74 439.122 1018.73C423.888 1017.35 405.106 1018.62 388.915 1017.05L392.783 1016.66C393.695 1015.37 393.277 1014.65 393.201 1012.63Z"/><path fill="#E3E2E2" d="M657.463 738.017C660.011 738.262 663.311 738.665 665.802 738.756C663.232 744.626 660.602 750.469 657.912 756.284L649.899 756.254C651.89 750.635 655.073 743.625 657.463 738.017Z"/><path fill="#E3E2E2" d="M709.891 738.031C712.438 744.464 714.834 749.714 717.812 755.974L708.958 756.016C706.997 751.196 703.843 742.858 701.55 738.525C703.933 738.526 707.783 738.758 709.891 738.031Z"/><path fill="#EF9918" d="M462.63 717.307C469.563 717.184 476.496 717.156 483.429 717.223L483.316 724.127C476.769 724.125 469.418 724.293 462.939 724.086C462.927 721.697 462.798 719.672 462.63 717.307Z"/><path fill="#E3E2E2" d="M703.704 722.866C705.832 727.894 707.894 732.95 709.891 738.031C707.783 738.758 703.933 738.526 701.55 738.525L698.222 731.041L695.206 723.71C697.933 723.524 700.958 723.151 703.704 722.866Z"/><path fill="#141314" d="M352.43 1008.96C355.681 1006.83 359.17 1004.42 362.612 1002.69C363.733 1006.59 364.125 1012.65 364.668 1014.14C363.034 1014.02 359.394 1012.56 357.657 1011.94C351.85 1013.12 347.285 1014.64 341.648 1016.43C341.228 1015.3 341.287 1015.37 341.495 1014.17C345.737 1011.09 347.601 1010.51 352.43 1008.96Z"/><path fill="#212121" d="M352.43 1008.96C354.384 1009 358.136 1008.86 359.738 1009.61L359.792 1010.37C358.995 1010.99 358.501 1011.37 357.657 1011.94C351.85 1013.12 347.285 1014.64 341.648 1016.43C341.228 1015.3 341.287 1015.37 341.495 1014.17C345.737 1011.09 347.601 1010.51 352.43 1008.96Z"/><path fill="#141314" d="M334.071 1018.12C336.4 1016.33 338.566 1014.32 341.495 1014.17C341.287 1015.37 341.228 1015.3 341.648 1016.43C339.744 1016.73 336.07 1017.67 334.071 1018.12Z"/><path fill="#141314" d="M441.092 1017.18C444.063 1017.41 447.374 1017.6 450.304 1017.93C448.21 1018.31 440.734 1019.71 439.122 1018.73C440.177 1018.74 439.8 1018.76 440.841 1018.35L441.092 1017.18Z"/><path fill="#212121" d="M3.7379 956.806C3.37118 954.659 2.99577 953.464 3.35506 951.36C4.26041 952.423 4.45648 954.477 4.77539 956.008L3.7379 956.806Z"/></svg>